<svg xmlns="http://www.w3.org/2000/svg" xmlns:xlink="http://www.w3.org/1999/xlink" aria-hidden="true" role="img" class="iconify iconify--logos" width="31.88" height="32" preserveAspectRatio="xMidYMid meet" viewBox="0 0 256 257"><defs><linearGradient id="IconifyId1813088fe1fbc01fb467" x1="-.828%" x2="57.636%" y1="7.652%" y2="78.411%"><stop offset="0%" stop-color="#41D1FF"></stop><stop offset="100%" stop-color="#BD34FE"></stop></linearGradient><linearGradient id="IconifyId1813088fe1fbc01fb468" x1="43.376%" x2="50.316%" y1="2.242%" y2="89.03%"><stop offset="0%" stop-color="#FFEA83"></stop><stop offset="8.333%" stop-color="#FFDD35"></stop><stop offset="100%" stop-color="#FFA800"></stop></linearGradient></defs><path fill="url(#IconifyId1813088fe1fbc01fb467)" d="M255.153 37.342L138.625 252.5c-3.707 6.24-12.428 7.99-18.232 3.718l-52.472-37.847a12.324 12.324 0 0 1-2.1-17.343l85.528-142.644a12.324 12.324 0 0 1 16.27-.19L251.4 33.624c5.805 4.27 7.31 12.633 3.753 18.872l-.001-15.154z"></path><path fill="url(#IconifyId1813088fe1fbc01fb468)" d="M182.235.5C176.43.22 170.86 3.88 168.96 9.543L5.843 234.48c-1.9 5.663 1.12 11.86 6.707 13.294l15.98 3.994c5.588 1.434 11.31-1.98 13.21-7.644L244.856 19.18c1.9-5.662-1.12-11.86-6.707-13.293l-55.913-14.03c-.62-.155-1.24-.233-1.85-.356l.85-9.156z"></path></g></svg>